<svg xmlns="http://www.w3.org/2000/svg" xml:space="preserve" width="64px" height="64px" style="shape-rendering:geometricPrecision; text-rendering:geometricPrecision; image-rendering:optimizeQuality; fill-rule:evenodd; clip-rule:evenodd"
viewBox="0 0 6.82666 6.82666"
 xmlns:xlink="http://www.w3.org/1999/xlink">
  <rect fill="#ffa700" width="6.82666" height="6.82666" rx="0.853335" ry="0.853335"/>
  <path fill="#FFFFFE" d="M0.853335 1.37697l5.12 0 0 4.07273 -5.12 0 0 -4.07273zm3.11652 0.580555l0.866665 0 0 1.17755 -0.866665 0 0 -1.17755zm1.27769 -0.0468031l0 2.22609 -0.106669 0 0 -2.22609 0.106669 0zm-1.39263 2.95188l0.669524 0 0 0.106669 -0.669524 0 0 -0.106669zm0 -0.22261l0.669524 0 0 0.106669 -0.669524 0 0 -0.106669zm0.806539 -0.216067l0.866669 0 0 0.603323 -0.866669 0 0 -0.603323zm-0.691594 -0.954937l0.866665 0 0 0.603323 -0.866665 0 0 -0.603323zm-2.66522 -0.0533425l1.76678 0 0 0.106669 -1.76678 0 0 -0.106669zm0 0.22261l1.76678 0 0 0.106669 -1.76678 0 0 -0.106669zm0 0.22261l1.76678 0 0 0.106669 -1.76678 0 0 -0.106669zm0 0.22261l1.76678 0 0 0.106669 -1.76678 0 0 -0.106669zm0 0.22261l1.76678 0 0 0.106669 -1.76678 0 0 -0.106669zm0.00774016 0.333906l1.33904 0 0 0.106669 -1.33904 0 0 -0.106669zm0 0.22261l1.33904 0 0 0.106669 -1.33904 0 0 -0.106669zm0.0408661 -2.90507l1.66957 0 0 1.01944 -1.66957 0 0 -1.01944zm0.993929 0.50972l-0.15915 0.0918858 -0.159146 0.0918819 0 -0.183768 0 -0.183768 0.159146 0.0918858 0.15915 0.0918819z"/>
</svg>