<?xml version="1.0" encoding="utf-8" ?><svg xmlns="http://www.w3.org/2000/svg" xmlns:xlink="http://www.w3.org/1999/xlink" width="597" height="261" viewBox="0 0 597 261"><path transform="scale(0.388393 0.388393)" d="M0 0L1536 0L1536 672L0 672L0 0Z"/><path fill="#FEFEFD" transform="scale(0.388393 0.388393)" d="M1023.78 133.415C1036.65 132.639 1056.92 133.319 1070.48 133.333L1163.7 133.431L1445.72 133.5L1445.45 198.852L1300.57 199.099C1300.05 242.872 1300.56 287.693 1300.56 331.536L1300.66 567.117L1149.12 567.442C1135.1 551.333 1115.35 531.844 1100.32 516.155C1065.88 480.154 1031.16 444.411 996.184 408.93L989.308 401.778L989.253 339.73L994.166 339.754C1028.7 339.917 1064.74 344.193 1090.78 317.555C1103.55 304.483 1110.65 289.273 1110.67 270.864C1110.78 252.799 1103.65 235.441 1090.89 222.659C1068.53 200.462 1043.2 200.934 1014.22 200.933L973.794 200.981C974.642 323.046 974.785 445.115 974.223 567.182L899.816 567.295L900.007 258.323C910.357 246.773 928.312 229.98 939.748 218.535C968.037 190.438 996.049 162.063 1023.78 133.415Z"/><path transform="scale(0.388393 0.388393)" d="M1152.65 198.735C1177.31 199.071 1202.54 198.792 1227.24 198.785L1227.51 553.361C1210.87 537.926 1191.63 517.167 1175.62 500.768C1155.47 479.948 1135.19 459.251 1114.78 438.678C1101.05 424.893 1086.34 410.758 1073.11 396.64C1089.62 394.268 1105.46 388.537 1119.66 379.801C1169.03 348.998 1191.66 279.718 1168.18 225.813C1164.07 216.379 1158.14 207.446 1152.65 198.735Z"/><path fill="#FEFEFD" transform="scale(0.388393 0.388393)" d="M908.623 129.812L990.303 129.745C967.682 152.927 942.122 176.82 918.93 199.805L748.468 369.561C777.013 397.295 810.042 431.274 837.324 460.57L753.025 460.606C739.004 444.73 721.249 428.257 706.459 412.385L551.306 567.152L472.965 567.415C478.668 561.074 488.361 552.098 494.731 545.781L539.028 501.806L668.567 371.917L655.07 358.33L609.971 407.528C596.468 423.917 576.957 444.279 562.392 460.495L485.183 460.598C493.95 449.167 516.665 426.263 527.451 414.633L617.131 318.18C577.628 278.354 538.347 238.31 499.288 198.049L580.24 198.042C605.555 224.13 631.657 250.333 656.649 276.605L732.887 198.057L811.214 198.116C800.531 210.286 782.441 227.379 770.637 239.203L693.94 315.989C697.544 320.139 704.03 326.454 708.022 330.567L846.727 192.263C867.615 171.701 888.248 150.883 908.623 129.812Z"/><path fill="#FEFEFD" transform="scale(0.388393 0.388393)" d="M172.976 198.293C276.054 199.675 381.392 198.095 484.633 198.221L484.678 220.039C469.549 235.923 450.624 253.493 434.632 269.062L339.079 361.696C324.877 375.396 303.24 394.493 290.394 408.418L483.793 408.564L483.75 456.937L483.419 459.581C480.226 461.617 452.754 460.587 447.155 460.586L380.978 460.662L173.207 460.686L173.162 449.726C211.657 410.623 250.141 369.327 288.233 329.715L334.13 281.99C343.014 272.764 353.721 262.2 361.916 252.537C340.117 252.999 316.79 252.624 294.868 252.631L172.992 252.576C172.46 235.487 172.733 215.491 172.976 198.293Z"/></svg>