<?xml version="1.0" encoding="utf-8"?>
<!-- Generator: Adobe Illustrator 22.1.0, SVG Export Plug-In . SVG Version: 6.00 Build 0)  -->
<svg version="1.1" id="Layer_1" xmlns="http://www.w3.org/2000/svg" xmlns:xlink="http://www.w3.org/1999/xlink" x="0px" y="0px"
	 viewBox="0 0 310.3 118.9" style="enable-background:new 0 0 310.3 118.9;" xml:space="preserve">
<style type="text/css">
	.st0{fill:#EA507C;}
	.st1{fill:#FFFFFF;}
</style>
<g>
	<g>
		<polygon class="st0" points="0,0 22.5,54.7 310.3,54.7 287.8,0 		"/>
		<g>
			<polygon class="st1" points="34.4,43.1 34.4,16 24.7,16 24.7,9.7 51.3,9.7 51.3,16 41.6,16 41.6,43.1 			"/>
			<path class="st1" d="M75.4,20.5c0-2.8-2.2-4.5-5-4.5h-7.4v9h7.4C73.2,25,75.4,23.3,75.4,20.5 M74.7,43.1l-6.5-11.8h-5.2v11.8
				h-7.1V9.7h15.6c6.9,0,11.2,4.5,11.2,10.7c0,5.9-3.7,9-7.3,9.9l7.5,12.7H74.7z"/>
			<rect x="88" y="9.7" class="st1" width="7.1" height="33.3"/>
			<path class="st1" d="M100.1,26.4c0-10.3,7.8-17.2,17.7-17.2c7.3,0,11.6,4,14,8.1l-6.1,3c-1.4-2.7-4.4-4.8-7.9-4.8
				c-6,0-10.4,4.7-10.4,10.9c0,6.3,4.4,11,10.4,11c3.4,0,6.5-2.1,7.9-4.8l6.1,2.9c-2.4,4.2-6.6,8.2-14,8.2
				C107.8,43.7,100.1,36.7,100.1,26.4"/>
			<polygon class="st1" points="155.8,43.1 145.7,29.7 143.1,32.8 143.1,43.1 136,43.1 136,9.7 143.1,9.7 143.1,24.6 154.9,9.7 
				163.7,9.7 150.4,25.4 164.6,43.1 			"/>
			<path class="st1" d="M165.6,38.3l3.9-5.4c2.3,2.4,6,4.5,10.6,4.5c3.9,0,5.8-1.8,5.8-3.7c0-5.9-19.2-1.9-19.2-14.4
				c0-5.6,4.8-10.2,12.7-10.2c5.3,0,9.7,1.6,13,4.7l-3.9,5.2c-2.7-2.5-6.3-3.6-9.7-3.6c-3,0-4.8,1.3-4.8,3.3
				c0,5.3,19.2,1.7,19.2,14.2c0,6.1-4.3,10.7-13.4,10.7C173.3,43.7,168.7,41.5,165.6,38.3"/>
			<polygon class="st1" points="204.9,43.1 204.9,16 195.1,16 195.1,9.7 221.7,9.7 221.7,16 212,16 212,43.1 			"/>
			<polygon class="st1" points="226.3,43.1 226.3,9.7 249.9,9.7 249.9,16 233.4,16 233.4,23 249.5,23 249.5,29.3 233.4,29.3 
				233.4,36.8 249.9,36.8 249.9,43.1 			"/>
			<path class="st1" d="M275,20.5c0-2.8-2.2-4.5-5-4.5h-7.4v9h7.4C272.8,25,275,23.3,275,20.5 M274.3,43.1l-6.5-11.8h-5.2v11.8h-7.1
				V9.7H271c6.9,0,11.2,4.5,11.2,10.7c0,5.9-3.7,9-7.3,9.9l7.5,12.7H274.3z"/>
		</g>
	</g>
	<g>
		<polygon class="st0" points="190.2,118.9 48.4,118.9 25.9,64.2 167.7,64.2 		"/>
		<g>
			<path class="st1" d="M54.2,91.8c0-10.3,7.8-17.3,17.7-17.3c7.4,0,11.6,4,14,8.1l-6.1,3c-1.4-2.7-4.4-4.9-7.9-4.9
				c-6,0-10.4,4.7-10.4,11c0,6.3,4.4,10.9,10.4,10.9c3.5,0,6.5-2.1,7.9-4.8l6.1,3c-2.4,4.1-6.6,8.2-14,8.2
				C61.9,109,54.2,102,54.2,91.8"/>
			<polygon class="st1" points="119.1,108.4 119.1,85.1 109.7,108.4 106.6,108.4 97.2,85.1 97.2,108.4 90.1,108.4 90.1,75.1 
				100.1,75.1 108.2,95.2 116.3,75.1 126.3,75.1 126.3,108.4 			"/>
			<path class="st1" d="M130.6,103.7l3.9-5.4c2.3,2.4,6,4.5,10.6,4.5c3.9,0,5.8-1.8,5.8-3.7c0-5.9-19.2-1.8-19.2-14.4
				c0-5.5,4.8-10.1,12.7-10.1c5.3,0,9.7,1.6,13,4.6l-4,5.2c-2.7-2.5-6.3-3.7-9.7-3.7c-3.1,0-4.8,1.3-4.8,3.3
				c0,5.3,19.1,1.8,19.1,14.2c0,6.1-4.4,10.7-13.4,10.7C138.3,109,133.7,106.9,130.6,103.7"/>
		</g>
	</g>
</g>
</svg>
