<svg xmlns="http://www.w3.org/2000/svg" viewBox="0 0 547.74 547.74">
  <path d="M273.87,345.132c39.293,0,71.262-31.969,71.262-71.262c0-39.293-31.969-71.261-71.262-71.261
			c-39.293,0-71.261,31.968-71.261,71.261C202.609,313.163,234.577,345.132,273.87,345.132z M273.87,228.735
			c24.927,0,45.135,20.208,45.135,45.135s-20.208,45.135-45.135,45.135s-45.135-20.208-45.135-45.135
			S248.943,228.735,273.87,228.735z"/>
  <path d="M273.87,547.74c151.256,0,273.87-122.617,273.87-273.87S425.126,0,273.87,0S0,122.617,0,273.87
			S122.614,547.74,273.87,547.74z M273.87,47.43c124.86,0,226.44,101.58,226.44,226.44H485.01
			c0-116.424-94.716-211.14-211.14-211.14V47.43z M273.87,116.051c87.023,0,157.822,70.799,157.822,157.819h-15.3
			c0-78.587-63.936-142.52-142.522-142.52V116.051z M273.87,187.309c47.729,0,86.562,38.832,86.562,86.562
			c0,47.729-38.832,86.562-86.562,86.562c-47.73,0-86.562-38.832-86.562-86.562C187.309,226.14,226.14,187.309,273.87,187.309z"/>
</svg>
