<?xml version="1.0" encoding="utf-8"?>
<svg xmlns="http://www.w3.org/2000/svg"
     viewBox="2870 6310 16000 5000"
>
  <path
    fill="currentColor"
    d="M 12149.953,6470 9750.2383,8869.7148 9510.2031,8629.75 11189.953,6950 h -960 L 9030.1309,8149.8223 7829.9531,6950 h -960 l 1680.25,1679.75 -1679.75,1679.75 h 960 L 9030.2754,9109.6777 9270.3105,9349.6426 7349.9531,11270 h 960 L 9750.3828,9829.5703 10230.453,10309.5 h 960 L 10230.311,9349.6426 12149.953,7430 v 1600 l -1119.5,-0.5 -320,320 320,320 1119.5,0.5 v 1600 h 800 V 9669.252 c 162.386,0 480.783,0.248 640.5,0.248 52.826,0 104.504,-1.8038 155.336,-4.8809 l 1604.414,1605.1309 h 960 L 14501.951,9460.6914 c 431.539,-242.0833 688.002,-698.7034 688.002,-1391.4394 0,-383.0356 -92.404,-705.9332 -259.359,-959.2579 h 1380.359 V 11269 h 800.5 V 7109.9941 H 18710 v -639.9882 z m -5279.4999,3839.5 v -640 h -2880 l 2879.5,-2079.5 v -640 h -4000 v 640 h 2880 l -2879.5,2079.5 v 640 z M 12949.953,7109.252 h 0 v 0.7421 h 667.42 c 621.99,10.412 936.47,379.7323 933.072,959.5059 -3.422,583.822 -473.06,954.5377 -949.474,959.75 l -651.026,0 z"
  />
</svg>
